<svg xmlns="http://www.w3.org/2000/svg" xmlns:xlink="http://www.w3.org/1999/xlink" width="517" height="517" viewBox="0 0 517 517"><defs><style>.a{fill:#3f3f3f;}.b{clip-path:url(#a);}</style><clipPath id="a"><rect class="a" width="517" height="517" transform="translate(486 1422.232)"/></clipPath></defs><g class="b" transform="translate(-486 -1422.232)"><g transform="translate(486 1475.521)"><path class="a" d="M1696.563,3109.241c.629,0,.94,1.051.94,3.129,0,2.305-1.1,3.684-2.761,3.684a3.972,3.972,0,0,1-1.536-.344c-1.142-.38-1.047-1.051.766-3.721C1695.119,3110.151,1695.98,3109.241,1696.563,3109.241Zm8.382,4.942a4.482,4.482,0,0,1,2.86,1.147c1.623,1.618,1.432,4.578-.286,4.578-.762,0-2-1.337-2.864-2.865C1703.228,3114.374,1703.323,3114.183,1704.945,3114.183ZM1524.84,2871.876a3.112,3.112,0,0,0-.431.033c-.575.1-3.34.476-6.014.766-4.1.476-5.725,1.333-8.966,4.388a94.563,94.563,0,0,0-14.314,19.563c-3.34,6.486-2.96,18.416,2.1,77.289,1.047,12.31,2.289,23.95,2.765,25.858.48,1.813,2.674,5.725,4.773,8.589,9.065,12.405,8.97,12.215,7.823,14.694-.667,1.527-2.384,2.67-4.959,3.34-5.153,1.337-7.062,4.483-6.3,9.827.667,4.2-1.242,9.35-7.538,20.229-1.242,2.1-2.289,4.582-2.289,5.534-.1,2-2.865,7.538-4.2,8.4a13.886,13.886,0,0,1-4.388,1.242c-1.908.286-5.439,2.1-8.014,3.912-3.821,2.86-4.487,3.817-4.487,6.582,0,3.39-.435,4.106-10.725,4.106-2.467,0-5.493-.042-9.218-.1-2.943-.042-5.3-.07-7.194-.07-7.024,0-7.765.381-8.742,1.883-.952,1.428-1.333,7.058-1.333,22.9l-.19,20.995,70.132.286,70.132.19,2.1-2.579c2.765-3.53,1.428-4.1-9.736-4.1-5.63,0-9.351-.381-9.351-.952s3.912-.957,9.926-.957c8.109,0,10.017-.285,10.493-1.527.29-.857.575-7.728.575-15.266v-13.742l-3.245-3.626-3.245-3.531-9.065-.1c-10.017-.19-11.545-.667-10.688-3.336.671-1.908-3.531-6.585-8.109-8.875-3.531-1.909-13.933-3.436-22.808-3.436h-7.918l.476-3.15c.861-5.249,3.15-14.6,3.912-15.841.252-.377.488-.571.745-.571.323,0,.683.314,1.163.956.861,1.142,2.864,1.623,7.732,1.718l6.677.19-.1-2.864c-.1-1.623-.666-18.8-1.238-38.169-.575-19.463-1.718-51.24-2.484-70.608-.762-19.467-1.333-42.656-1.432-51.625C1527.651,2875.258,1527.224,2871.876,1524.84,2871.876ZM1917.693,3104.2c.6,0,.77,4.272.993,18.089.1,11.358.667,20.423,1.143,20.9.575.571.956,3.816.956,7.348,0,4.2,1.143,10.877,3.436,19.562,6.105,23.95,7.823,59.921,3.241,69.081-.381.766-1.428,3.15-2.289,5.249-2.1,5.058-8.3,11.644-11.735,12.5a16.361,16.361,0,0,0-3.626,1.337c-1.589,1.192-6.163,2.451-8.25,2.451a1.845,1.845,0,0,1-.911-.161c-.67-.381.476-2.1,3.15-4.678a47.5,47.5,0,0,0,7.823-10.974c3.245-6.2,3.531-7.442,3.15-12.306-.861-9.16-1.718-11.644-5.439-15.365-3.436-3.436-5.058-4.1-14.314-5.534l-4.3-.667-.571-10.5a97.566,97.566,0,0,0-2-15.741c-2.67-9.065-3.912-15.937-3.34-18.226.716-2.682,4.7-7.124,6.217-7.124a.575.575,0,0,1,.273.062,3.409,3.409,0,0,1,.857,2.384c0,1.528,6.11,7.633,7.728,7.633a18.2,18.2,0,0,0,3.816-2.194c2.959-2,3.34-2.67,3.916-8.3.381-3.432,1.143-8.775,1.718-11.926s1.428-8.113,1.908-10.973,1.333-7.633,1.813-10.5,1.333-8.014,1.813-11.45a52.126,52.126,0,0,1,2.194-9.065C1917.316,3104.546,1917.523,3104.2,1917.693,3104.2Zm-340.42,30.97-151.242.1-2.579,2.293c-2.479,2.1-2.67,2.86-2.67,9.35v7.157l3.436,1.623c2.194,1.047,6.105,1.623,11.164,1.718l7.823.19.476,62.023.48,62.023h16.222l.286-61.643c.19-57.731.286-61.737,1.908-62.118.584-.17,24.724-.244,51.828-.244,34.712,0,74.284.124,75.464.339.476,0,.857,27.861.952,61.833l.286,61.833h16.222l.286-61.452c.1-35.975.575-61.737,1.051-62.118.476-.286,26.91-.476,58.778-.476s58.112-.286,58.3-.67c.286-.476,2.384-1.623,4.582-2.67,4.578-2,5.34-3.245,5.34-8.494,0-2.86-.666-4.2-3.626-7.062l-3.626-3.531Zm232.157-260.958a55.705,55.705,0,0,0-7.041.41c-1.089.116-6.4,1.072-7.111,1.275-.211.058-.923.261-1.6.439a40.879,40.879,0,0,0-18.151,10.294,34.567,34.567,0,0,0-6.321,8.933,31.155,31.155,0,0,0-3.1,13.411c-.021,2.922.393,4.673,1.515,6.4l.335.521-.41.939c-.679,1.552-1.7,3.588-3.651,7.31-3.137,5.964-4.168,8.154-4.781,10.183-.488,1.619-.53,2.587-.157,3.311.464.895,1.337,1.412,3.394,2a5.885,5.885,0,0,0,1.647.327c.083,0,.166,0,.257-.008.348-.021.654-.033.927-.033,1.142,0,1.73.178,2.111.6.327.352.385.828.261,1.954a10.727,10.727,0,0,0-.1,1.366,3.8,3.8,0,0,1-.53,1.85c-.509,1.06-.6,1.433-.48,1.982.178.808.708,1.284,2.289,2.062a2.779,2.779,0,0,1,.691.422c.133.2-.054.667-.637,1.623-.555.927-.7,1.329-.625,1.722.062.323.195.456,1.391,1.391,1.416,1.113,2,1.842,2.252,2.786.161.65.161.7-.153,3.117-.455,3.485-.422,4.818.145,6a8.408,8.408,0,0,0,4.74,3.626,10.293,10.293,0,0,0,2.533.43l.811.054,7.393-1.411,7.38-1.416.41.311a12.561,12.561,0,0,1,2.223,2.968c.418.737.853,1.619,1.308,2.624h-.012q-.414.207-.819.406h.008c.1.161.2.323.3.476,2.575,3.816,2.575,3.912.762,6.486-5.534,8.018-7.728,17.178-7.823,31.968,0,11.164-.766,14.5-4.3,18.8-1.523,1.908-4.768,10.5-6.772,17.654-1.718,6.2-3.055,16.317-3.721,28.909-.19,4.3-.671,8.4-1.051,8.97-.476.67-.952,5.249-1.242,10.211l-.571,9.065-8.4-.285c-1.1-.038-2.115-.058-3.034-.058-3.779,0-6.027.323-6.793,1.01-.762.575-4.007,1.242-7.252,1.527-.824.037-1.552.066-2.223.066-4.388,0-6.238-1.122-14.761-7.414a28.543,28.543,0,0,0-7.633-3.816,21.745,21.745,0,0,1-5.439-2.194,6.006,6.006,0,0,0-2.8-.447,19.293,19.293,0,0,0-2.446.161c-2.289.381-7.062.857-10.783,1.143-6.3.575-10.021,2.194-10.021,4.487,0,.476-1.238,2.384-2.86,4.2-1.527,1.718-2.864,4.007-2.864,4.963,0,2.683-1.478,3.7-6.267,3.7-1.171,0-2.542-.062-4.131-.173-4.3-.286-11.263-.861-15.555-1.146-4.388-.286-8.4-.952-8.97-1.433a1.032,1.032,0,0,0-.687-.261,3.261,3.261,0,0,0-2.078,1.313,4.528,4.528,0,0,1-3.552,1.771c-1.706,0-3.912-.861-7.136-2.633-2.744-1.527-4-2.21-4.959-2.21-.778,0-1.366.447-2.388,1.258-1.5,1.18-2.488,1.726-3.506,1.726a5.554,5.554,0,0,1-2.7-.964,3.016,3.016,0,0,0-1.685-.621c-1.37,0-3.071,1.3-6.9,4.727-3.245,3.051-3.916,4.2-3.916,7.248,0,2.865.671,4.3,3.15,6.681l3.15,3.055h48.951c5.915.013,11.135.021,15.742.021,28.781,0,33.772-.3,35.5-1.453,2.765-1.813,2.86-3.436.381-5.725a5.886,5.886,0,0,1-1.908-2.579.749.749,0,0,1,.84-.836c1.155,0,3.357,1.283,5.65,3.51a21.719,21.719,0,0,0,12.977,6.49c4.292.571,5.534,2,4.673,5.149-1.337,5.344-1.142,5.439,5.534,5.725,5.439.194,6.49.575,6.871,2.1a2.528,2.528,0,0,0,2.384,1.908,3.183,3.183,0,0,1,2.484.856c.666,1.051-5.534,4.868-7.732,4.868-.857,0-3.336,1.622-5.63,3.531-8.68,7.538-11.64,9.827-12.4,9.827-.48,0-2.2,1.337-3.916,2.864-2.955,2.765-3.241,2.86-13.262,2.86-5.629,0-11.544.381-13.167.956-1.623.476-9.351,2-17.273,3.341-26.525,4.578-34.158,6.3-39.6,9.065-4.2,2.193-5.915,4.1-8.589,9.731-1.718,3.626-2,5.629-1.623,10.973.671,9.542,1.432,11.735,6.01,16.7,2.293,2.479,4.2,5.249,4.2,6.2a23.715,23.715,0,0,0,2,6.014,65.823,65.823,0,0,1,3.34,9.541c1.623,6.2,1.813,6.681,6.966,17.464,2.289,4.673,5.054,10.684,6.3,13.453,1.242,2.669,2.864,5.439,3.626,6.105.844.691,5.7,1.01,18.267,1.01,3.071,0,6.6-.017,10.646-.054l27.576-.286.286-6.49c.19-4.963-.191-7.252-1.623-10.017a52.753,52.753,0,0,1-3.055-8.3,79.008,79.008,0,0,0-4.483-12.12c-2.67-5.923-3.427-8.7-2.277-8.7h.012c.538,0,1.482.6,2.835,1.743,2.049,1.718,2.865,2.289,5.865,2.289,1.333,0,3.1-.112,5.588-.286,1.8-.116,4.71-.17,8.163-.17,5.3,0,11.9.128,17.791.36l17.555.667-.286,4.963a29.12,29.12,0,0,0,.956,8.589c1.432,4.2,4.388,8.87,5.63,8.87.476,0,3.626,1.718,7.062,3.916,4.218,2.616,5.886,3.46,7.836,3.46a11.09,11.09,0,0,0,1.991-.22c2-.381,9.926-.856,17.749-1.143l14.028-.38v5.245c0,8.018.476,8.208,17.079,8.208,7.728,0,14.314-.286,14.6-.571s0-2.769-.761-5.439c-1.59-6.105-1.854-7.273.671-7.273.517,0,1.146.05,1.9.116,3.912.286,4.007.476,5.534,5.054,2.223,6.979,2.045,8.042,9.955,8.042,1.933,0,4.355-.066,7.409-.12l13.742-.286.286-4.487c.381-5.153.861-5.629,7.823-7.823,2.864-.956,7.542-2.769,10.307-4.007a33.579,33.579,0,0,1,6.01-2.293c1.813,0,14.218-12.592,14.218-14.4a3.019,3.019,0,0,1,.956-2.293c.571-.286.952-1.623.952-2.86a4.02,4.02,0,0,1,.956-2.864c.571-.381.952-7.347.952-17.654s-.381-17.27-.952-17.65c-.48-.286-.956-4.583-.956-9.446,0-4.772-.38-9.161-.857-9.641-.48-.571-1.146-4.388-1.337-8.584-.285-4.2-.956-10.212-1.527-13.362-1.142-6.391-2.479-14.5-4.1-25.287-1.432-9.541-1.051-26.62.666-31.583,1.813-4.963,1.908-17.364.286-18.8a9.373,9.373,0,0,0-4.1-1.337c-2.67-.286-2.86-.476-2.67-4.1a41.368,41.368,0,0,1,1.908-8.589c2.765-8.3,1.527-15.937-2.769-16.984a5.564,5.564,0,0,0-1.453-.166c-3.713,0-10.178,2.339-12.666,4.744-1.366,1.283-2.661,2.094-3.266,2.094a.364.364,0,0,1-.265-.087c-.385-.385-.575-3.34-.48-6.585.191-5.725-3.146-24.525-5.534-30.726-1.428-3.816-6.3-11.449-10.207-16.126-1.718-2.1-3.15-4.2-3.15-4.673,0-2.864-13.647-17.94-20.419-22.522a30.165,30.165,0,0,1-2.484-2c-.286-.285-2-1.717-3.912-3.146-2.67-2.008-3.626-3.531-4.1-6.4a16.266,16.266,0,0,0-3.245-6.871,49.654,49.654,0,0,1-3.957-5.22h-.013c-1.1-2.989-1.3-3.568-1.842-5.174-.3-.89-.638-1.887-.754-2.2-.6-1.743-1.618-5.294-2.144-7.467a13.869,13.869,0,0,1,.178-7.84,45.832,45.832,0,0,1,2.715-7.186c2.388-5.48,2.678-6.407,3.249-10.261a48.182,48.182,0,0,0-.547-18.134,34.879,34.879,0,0,0-8.374-16c-6.95-7.422-17.137-11.429-29.128-11.433Z" transform="translate(-1420.782 -2871.876)"/></g></g></svg> 
